<?xml version="1.0" encoding="utf-8"?>
<svg xmlns="http://www.w3.org/2000/svg" xmlns:xlink="http://www.w3.org/1999/xlink" width="220px" height="220px" viewBox="0 0 220 220" version="1.1">
    <title>Artboard Copy 13</title>
    <defs>
        <polygon id="path-1" points="0 152.26 124.967 152.26 124.967 0 0 0"/>
    </defs>
    <g id="Artboard-Copy-13" stroke="none" stroke-width="1" fill="none" fill-rule="evenodd">
        <g id="Group-8" transform="translate(48.000000, 33.000000)">
            <path d="M103,120.2749 L111.967,120.2749 L111.967,109.8949 C111.967,107.4229 109.956,105.4119 107.483,105.4119 C105.011,105.4119 103,107.4229 103,109.8949 L103,120.2749 Z M118.467,133.2749 L96.5,133.2749 C92.91,133.2749 90,130.3649 90,126.7749 L90,109.8949 C90,100.2549 97.843,92.4119 107.483,92.4119 C117.124,92.4119 124.967,100.2549 124.967,109.8949 L124.967,126.7749 C124.967,130.3649 122.057,133.2749 118.467,133.2749 L118.467,133.2749 Z" id="Fill-1" fill="#00D05F"/>
            <mask id="mask-2" fill="white">
                <use xlink:href="#path-1"/>
            </mask>
            <g id="Clip-4"/>
            <polygon id="Fill-3" fill="#00D05F" mask="url(#mask-2)" points="96.5 152.26 118.467 152.26 118.467 139.26 96.5 139.26"/>
            <path d="M100.9834,45.6872 L100.9834,87.3342 C103.0494,86.7382 105.2284,86.4122 107.4834,86.4122 C109.7384,86.4122 111.9174,86.7382 113.9834,87.3342 L113.9834,45.6872 C113.9834,29.6962 100.9744,16.6872 84.9834,16.6872 C68.9924,16.6872 55.9834,29.6962 55.9834,45.6872 L55.9834,106.5732 C55.9834,115.3952 48.8054,122.5732 39.9834,122.5732 C31.1614,122.5732 23.9834,115.3952 23.9834,106.5732 L23.9834,64.9262 C21.9174,65.5222 19.7384,65.8482 17.4834,65.8482 C15.2284,65.8482 13.0494,65.5222 10.9834,64.9262 L10.9834,106.5732 C10.9834,122.5632 23.9924,135.5732 39.9834,135.5732 C55.9744,135.5732 68.9834,122.5632 68.9834,106.5732 L68.9834,45.6872 C68.9834,36.8642 76.1614,29.6872 84.9834,29.6872 C93.8054,29.6872 100.9834,36.8642 100.9834,45.6872" id="Fill-5" fill="#230113" mask="url(#mask-2)"/>
            <path d="M13,31.9853 L13,42.3653 C13,44.8373 15.011,46.8483 17.483,46.8483 C19.956,46.8483 21.967,44.8373 21.967,42.3653 L21.967,31.9853 L13,31.9853 Z M17.483,59.8483 C7.843,59.8483 0,52.0053 0,42.3653 L0,25.4853 C0,21.8953 2.91,18.9853 6.5,18.9853 L28.467,18.9853 C32.057,18.9853 34.967,21.8953 34.967,25.4853 L34.967,42.3653 C34.967,52.0053 27.124,59.8483 17.483,59.8483 L17.483,59.8483 Z" id="Fill-6" fill="#00D05F" mask="url(#mask-2)"/>
            <polygon id="Fill-7" fill="#00D05F" mask="url(#mask-2)" points="6.5 13 28.467 13 28.467 0 6.5 0"/>
        </g>
    </g>
</svg>