<?xml version="1.0" encoding="UTF-8"?>
<svg id="Layer_1" data-name="Layer 1" xmlns="http://www.w3.org/2000/svg" xmlns:xlink="http://www.w3.org/1999/xlink" version="1.1" viewBox="0 0 220 220">
  <defs>
    <style>
      .cls-1 {
        fill: #007df9;
      }

      .cls-1, .cls-2, .cls-3, .cls-4 {
        fill-rule: evenodd;
        stroke-width: 0px;
      }

      .cls-5 {
        mask: url(#mask);
      }

      .cls-2 {
        fill: #230113;
      }

      .cls-3 {
        fill: #fff;
      }

      .cls-4 {
        fill: #6644f8;
      }
    </style>
    <mask id="mask" x="126.8" y="48" width="69.4" height="136.5" maskUnits="userSpaceOnUse">
      <g id="mask-2">
        <polygon id="path-1" class="cls-3" points="126.8 48 196.2 48 196.2 184.5 126.8 184.5 126.8 48"/>
      </g>
    </mask>
  </defs>
  <g id="Artboard-Copy-3">
    <g id="Group-12">
      <path id="Fill-1" class="cls-4" d="M113.6,149.8c.5-.7,1-1.4,1.4-2.2,3.3-5.3,5.6-12.2,6.8-19.6-.5-3.8-.7-7.7-.7-11.7s.3-7.9.7-11.7c-1.2-7.5-3.5-14.3-6.8-19.6-.5-.8-.9-1.5-1.4-2.2-3.5,9.9-5.5,21.3-5.5,33.5s2,23.7,5.5,33.5"/>
      <g id="Group-5">
        <g class="cls-5">
          <path id="Fill-3" class="cls-4" d="M152.2,48c-9.5,0-18.2,4.5-25.4,12.1,3.1,2.8,6,6.2,8.5,10.1,4.9-5.8,10.7-9.2,16.9-9.2,16.8,0,31.1,25.3,31.1,55.2s-14.2,55.2-31.1,55.2-12-3.4-16.9-9.2c-2.5,3.8-5.4,7.2-8.5,10.1,7.1,7.7,15.8,12.1,25.4,12.1,24.7,0,44.1-30,44.1-68.2s-19.4-68.2-44.1-68.2"/>
        </g>
      </g>
      <path id="Fill-6" class="cls-2" d="M72.1,91.9c-1.2-1.9-2.5-3.5-3.8-4.7-3,8.6-4.7,18.4-4.7,29s1.7,20.5,4.7,29c1.3-1.2,2.6-2.8,3.8-4.7,2.4-3.9,4.1-8.9,5.1-14.4-.4-3.2-.6-6.5-.6-9.9s.2-6.7.6-9.9c-1-5.5-2.7-10.5-5.1-14.4"/>
      <path id="Fill-8" class="cls-2" d="M102.7,56.2c-8,0-15.3,3.5-21.4,9.5,3.4,2.4,6.5,5.4,9.3,9,3.6-3.5,7.8-5.6,12.1-5.6,14.1,0,26.1,21.5,26.1,47.1s-11.9,47.1-26.1,47.1-8.5-2-12.1-5.6c-2.7,3.6-5.9,6.7-9.3,9,6.1,6,13.4,9.5,21.4,9.5,21.9,0,39.1-26.4,39.1-60.1s-17.2-60.1-39.1-60.1"/>
      <path id="Fill-10" class="cls-1" d="M64,79.1c-11.8,0-20,19.6-20,37.1s8.2,37.1,20,37.1,20-19.6,20-37.1-8.2-37.1-20-37.1M64,166.3c-18.5,0-33-22-33-50.1s14.5-50.1,33-50.1,33,22,33,50.1-14.5,50.1-33,50.1"/>
    </g>
  </g>
</svg>