<?xml version="1.0" encoding="UTF-8"?>
<svg id="Layer_1" data-name="Layer 1" xmlns="http://www.w3.org/2000/svg" version="1.1" viewBox="0 0 220 220">
  <defs>
    <style>
      .cls-1 {
        fill: #007df9;
      }

      .cls-1, .cls-2 {
        fill-rule: evenodd;
        stroke-width: 0px;
      }

      .cls-2 {
        fill: #230113;
      }
    </style>
  </defs>
  <g id="Artboard">
    <path id="Fill-30" class="cls-1" d="M103,95.9c1.2.8,2.3,1.6,3.4,2.5,1,.8,2.1,1.8,3.1,2.9,1-1.1,2.1-2,3.1-2.9,1.1-.9,2.2-1.7,3.4-2.5v-25.6c3.8,2.1,8.2,3.3,12.7,3.3s.1,0,.2,0v-13c-3.6,0-6.9-1.3-9.3-3.7-2.3-2.3-3.6-5.5-3.6-8.9h-13c0,3.4-1.3,6.6-3.6,8.9-2.4,2.4-5.6,3.7-9.2,3.7v13c4.5,0,8.9-1.1,12.8-3.3v25.6Z"/>
    <path id="Fill-32" class="cls-2" d="M163.1,90.3c-2.4-2.4-3.7-5.6-3.7-9h-13c0,4.5,1.1,8.8,3.2,12.6-8.5-.4-22.6.5-33.2,9.2-2.7,2.2-5,4.8-6.9,7.8-1.9-2.9-4.2-5.5-6.9-7.8-10.6-8.7-24.7-9.7-33.2-9.2,2.1-3.8,3.2-8.2,3.2-12.7h-13c0,3.5-1.3,6.7-3.7,9.1-2.4,2.4-5.6,3.8-9,3.8v13c3.5,0,6.7,1.3,9.1,3.7,2.4,2.4,3.8,5.6,3.8,9h13c0-4.7-1.3-9.1-3.5-12.8,6.4-.4,17.4,0,24.9,6.2,5.8,4.8,8.7,12.4,8.7,22.8s-.4,22.6-32.6,23.9l.5,13c21.5-.9,32.7-9.4,38.6-18,5.9,8.6,17.2,17.1,38.6,18l.5-13c-31.3-1.3-32.6-21.7-32.6-23.9,0-10.4,2.9-18,8.7-22.8,7.6-6.3,18.6-6.7,25-6.3-2.2,3.7-3.5,8.1-3.5,12.7h13c0-3.3,1.4-6.5,3.8-8.9,2.4-2.4,5.6-3.7,9-3.7v-13c-3.3,0-6.5-1.4-8.9-3.8"/>
  </g>
</svg>