<?xml version="1.0" encoding="UTF-8"?>
<svg id="Layer_1" data-name="Layer 1" xmlns="http://www.w3.org/2000/svg" xmlns:xlink="http://www.w3.org/1999/xlink" version="1.1" viewBox="0 0 220 220">
  <defs>
    <style>
      .cls-1 {
        mask: url(#mask);
      }

      .cls-2 {
        fill: #230113;
      }

      .cls-2, .cls-3, .cls-4 {
        fill-rule: evenodd;
        stroke-width: 0px;
      }

      .cls-3 {
        fill: #d60029;
      }

      .cls-4 {
        fill: #fff;
      }
    </style>
    <mask id="mask" x="143.8" y="145" width="36.6" height="36.6" maskUnits="userSpaceOnUse">
      <g id="mask-2">
        <polygon id="path-1" class="cls-4" points="143.8 145 180.5 145 180.5 181.6 143.8 181.6 143.8 145"/>
      </g>
    </mask>
  </defs>
  <g id="Artboard">
    <g id="Group-12">
      <path id="Fill-1" class="cls-2" d="M103.9,57.3c0,2.9,2.4,5.3,5.3,5.3s5.3-2.4,5.3-5.3-2.4-5.3-5.3-5.3-5.3,2.4-5.3,5.3M90.9,57.3c0-10.1,8.2-18.3,18.3-18.3s18.3,8.2,18.3,18.3-8.2,18.3-18.3,18.3-18.3-8.2-18.3-18.3"/>
      <g id="Group-5">
        <g class="cls-1">
          <path id="Fill-3" class="cls-2" d="M156.8,163.3c0,2.9,2.4,5.3,5.3,5.3s5.3-2.4,5.3-5.3-2.4-5.3-5.3-5.3-5.3,2.4-5.3,5.3M143.8,163.3c0-10.1,8.2-18.3,18.3-18.3s18.3,8.2,18.3,18.3-8.2,18.3-18.3,18.3-18.3-8.2-18.3-18.3"/>
        </g>
      </g>
      <path id="Fill-6" class="cls-2" d="M103.9,163.3c0,2.9,2.4,5.3,5.3,5.3s5.3-2.4,5.3-5.3-2.4-5.3-5.3-5.3-5.3,2.4-5.3,5.3M90.9,163.3c0-10.1,8.2-18.3,18.3-18.3s18.3,8.2,18.3,18.3-8.2,18.3-18.3,18.3-18.3-8.2-18.3-18.3"/>
      <path id="Fill-8" class="cls-3" d="M162.1,139c-4.5,0-8.8,1.2-12.4,3.4-8.9-20.1-23.7-26.1-34-27.6v25.1c-2.1-.6-4.2-.9-6.5-.9s-4.4.3-6.5.9v-25.1c-10.3,1.6-25.1,7.5-33.9,27.6-3.7-2.2-7.9-3.5-12.5-3.5s-.1,0-.2,0c11.7-28.7,33.8-35.7,46.6-37.3v-21c2.1.6,4.2.9,6.5.9s4.4-.3,6.5-.9v21c12.8,1.5,35,8.5,46.7,37.3-.1,0-.2,0-.3,0"/>
      <path id="Fill-10" class="cls-2" d="M51,163.3c0,2.9,2.4,5.3,5.3,5.3s5.3-2.4,5.3-5.3-2.4-5.3-5.3-5.3-5.3,2.4-5.3,5.3M38,163.3c0-10.1,8.2-18.3,18.3-18.3s18.3,8.2,18.3,18.3-8.2,18.3-18.3,18.3-18.3-8.2-18.3-18.3"/>
    </g>
  </g>
</svg>