<?xml version="1.0" encoding="utf-8"?>
<svg xmlns="http://www.w3.org/2000/svg" xmlns:xlink="http://www.w3.org/1999/xlink" width="220px" height="220px" viewBox="0 0 220 220" version="1.1">
    <title>Artboard Copy 2</title>
    <defs>
        <polygon id="path-1" points="0.0004 0.7281 95.0474 0.7281 95.0474 141 0.0004 141"/>
        <polygon id="path-3" points="0.1042 0.6399 106.362 0.6399 106.362 66.5569 0.1042 66.5569"/>
    </defs>
    <g id="Artboard-Copy-2" stroke="none" stroke-width="1" fill="none" fill-rule="evenodd">
        <g id="Group-7" transform="translate(48.000000, 38.000000)">
            <g id="Group-3" transform="translate(0.000000, 0.272000)">
                <mask id="mask-2" fill="white">
                    <use xlink:href="#path-1"/>
                </mask>
                <g id="Clip-2"/>
                <path d="M82.0474,75.6511 L82.0474,126.1821 C82.0474,127.1841 81.2324,128.0001 80.2294,128.0001 L14.8184,128.0001 C13.8154,128.0001 13.0004,127.1841 13.0004,126.1821 L13.0004,15.5461 C13.0004,14.5431 13.8154,13.7281 14.8184,13.7281 L80.2294,13.7281 C81.2324,13.7281 82.0474,14.5431 82.0474,15.5461 L82.0474,47.1141 C86.3234,45.2121 90.6814,43.6561 95.0474,42.4041 L95.0474,15.5461 C95.0474,7.3751 88.4004,0.7281 80.2294,0.7281 L14.8184,0.7281 C6.6474,0.7281 0.0004,7.3751 0.0004,15.5461 L0.0004,126.1821 C0.0004,134.3531 6.6474,141.0001 14.8184,141.0001 L80.2294,141.0001 C88.4004,141.0001 95.0474,134.3531 95.0474,126.1821 L95.0474,68.6941 C90.2834,70.5761 85.9504,72.8981 82.0474,75.6511" id="Fill-1" fill="#230113" mask="url(#mask-2)"/>
            </g>
            <g id="Group-6" transform="translate(25.000000, 43.272000)">
                <mask id="mask-4" fill="white">
                    <use xlink:href="#path-3"/>
                </mask>
                <g id="Clip-5"/>
                <path d="M28.9922,66.5569 L16.0232,65.9209 C16.0232,50.3569 0.2632,39.9219 0.1042,39.8189 L7.1382,28.8859 C7.7022,29.2479 16.2862,34.8549 22.5332,44.6689 C24.4302,40.8129 26.8692,36.6989 30.0032,32.5889 C50.1342,6.1829 82.6382,0.6399 106.3622,0.6399 L106.3622,13.6399 C76.1262,13.6399 53.9142,22.6669 40.3412,40.4709 C30.3722,53.5469 29.0052,66.4279 28.9922,66.5569" id="Fill-4" fill="#33CC6B" mask="url(#mask-4)"/>
            </g>
        </g>
    </g>
</svg>