<?xml version="1.0" encoding="utf-8"?>
<svg xmlns="http://www.w3.org/2000/svg" xmlns:xlink="http://www.w3.org/1999/xlink" width="220px" height="220px" viewBox="0 0 220 220" version="1.1">
    <title>Artboard Copy 2</title>
    <defs>
        <polygon id="path-1" points="0.925 0.813 129.08 0.813 129.08 128.9679 0.925 128.9679"/>
        <polygon id="path-3" points="0.0281 0.0946200862 63.05 0.0946200862 63.05 49.1619 0.0281 49.1619"/>
        <polygon id="path-5" points="0 0.1978 68.4394 0.1978 68.4394 105.9998 0 105.9998"/>
    </defs>
    <g id="Artboard-Copy-2" stroke="none" stroke-width="1" fill="none" fill-rule="evenodd">
        <g id="Group-10" transform="translate(38.000000, 41.000000)">
            <g id="Group-3" transform="translate(5.000000, 0.187000)">
                <mask id="mask-2" fill="white">
                    <use xlink:href="#path-1"/>
                </mask>
                <g id="Clip-2"/>
                <path d="M128.167,54.1619 C127.093,47.8629 125.072,41.7559 122.205,36.0579 C120.064,31.8289 117.477,27.8609 114.49,24.2319 C111.9,24.5689 107.452,25.6089 100.931,28.6269 C110.278,37.8889 116.08,50.7239 116.08,64.8909 C116.08,93.0549 93.167,115.9679 65.002,115.9679 C36.838,115.9679 13.925,93.0549 13.925,64.8909 C13.925,36.7259 36.838,13.8129 65.002,13.8129 C71.136,13.8129 77.009,14.9219 82.46,16.9149 C87.649,13.8799 92.585,11.4149 97.217,9.5429 C87.745,4.0049 76.744,0.8129 65.002,0.8129 C29.67,0.8129 0.925,29.5579 0.925,64.8909 C0.925,100.2229 29.67,128.9679 65.002,128.9679 C100.334,128.9679 129.08,100.2229 129.08,64.8909 C129.08,61.2329 128.762,57.6479 128.17,54.1559 C128.169,54.1579 128.168,54.1599 128.167,54.1619" id="Fill-1" fill="#230113" mask="url(#mask-2)"/>
            </g>
            <g id="Group-6" transform="translate(79.000000, 5.187000)">
                <mask id="mask-4" fill="white">
                    <use xlink:href="#path-3"/>
                </mask>
                <g id="Clip-5"/>
                <path d="M48.3241,14.7419 C50.4351,16.8529 50.7741,22.3379 48.0341,30.7079 C50.9951,36.5049 53.0711,42.7339 54.1671,49.1619 C64.7361,29.0089 65.9011,13.9339 57.5161,5.5499 C47.3091,-4.6581 26.3551,-0.4101 0.0281,17.2019 L7.2571,28.0069 C31.1411,12.0289 44.9021,11.3209 48.3241,14.7419" id="Fill-4" fill="#00D05F" mask="url(#mask-4)"/>
            </g>
            <g id="Group-9" transform="translate(0.000000, 30.187000)">
                <mask id="mask-6" fill="white">
                    <use xlink:href="#path-5"/>
                </mask>
                <g id="Clip-8"/>
                <path d="M28.6294,91.4038 C23.8554,93.1248 19.6804,93.3678 16.7644,92.4878 C13.7714,91.5848 13.3154,89.8188 13.1654,89.2378 C11.3224,82.0998 21.1654,52.2808 53.5634,25.3748 C54.2434,32.3098 57.5574,37.3298 59.1444,39.3648 L67.7514,32.6538 C66.6324,31.2198 64.0634,27.3118 64.3624,22.0198 C64.6084,17.6658 66.6964,14.4158 68.4394,12.4278 C66.9104,11.3458 65.5004,10.0458 64.2644,8.5208 C63.0044,6.9658 62.0114,5.2818 61.2654,3.5258 C59.0284,4.7648 55.5604,6.0718 51.4154,5.5228 C46.1314,4.8228 42.7744,1.5658 41.5744,0.1978 L33.3674,7.3908 C35.0074,9.2628 39.0654,13.2388 45.3584,15.2888 C10.5534,44.1368 -3.0906,78.2798 0.5784,92.4878 C2.1254,98.4798 6.6554,103.0168 13.0074,104.9338 C15.3824,105.6508 17.9134,105.9998 20.5454,105.9998 C27.3924,105.9998 34.9264,103.6218 42.2024,99.2028 C37.3724,97.1068 32.8244,94.4838 28.6294,91.4038" id="Fill-7" fill="#00D05F" mask="url(#mask-6)"/>
            </g>
        </g>
    </g>
</svg>