<?xml version="1.0" encoding="UTF-8"?>
<svg id="Layer_1" data-name="Layer 1" xmlns="http://www.w3.org/2000/svg" xmlns:xlink="http://www.w3.org/1999/xlink" version="1.1" viewBox="0 0 231 231">
  <defs>
    <style>
      .cls-1 {
        mask: url(#mask);
      }

      .cls-2 {
        mask: url(#mask-2-2);
      }

      .cls-3 {
        fill: #270011;
      }

      .cls-3, .cls-4, .cls-5 {
        fill-rule: evenodd;
        stroke-width: 0px;
      }

      .cls-4 {
        fill: #fff;
      }

      .cls-5 {
        fill: #6644f8;
      }

      .cls-6 {
        mask: url(#mask-3);
      }

      .cls-7 {
        mask: url(#mask-1);
      }
    </style>
    <mask id="mask" x="54.9" y="138.6" width="13.6" height="21.6" maskUnits="userSpaceOnUse">
      <g id="mask-2">
        <polygon id="path-1" class="cls-4" points="54.9 138.6 68.5 138.6 68.5 160.1 54.9 160.1 54.9 138.6"/>
      </g>
    </mask>
    <mask id="mask-1" x="105.3" y="121.8" width="13.6" height="38.3" maskUnits="userSpaceOnUse">
      <g id="mask-4">
        <polygon id="path-3" class="cls-4" points="105.3 121.8 118.9 121.8 118.9 160.1 105.3 160.1 105.3 121.8"/>
      </g>
    </mask>
    <mask id="mask-2-2" data-name="mask-2" x="80.1" y="131.9" width="13.7" height="28.2" maskUnits="userSpaceOnUse">
      <g id="mask-6">
        <polygon id="path-5" class="cls-4" points="80.1 131.9 93.7 131.9 93.7 160.1 80.1 160.1 80.1 131.9"/>
      </g>
    </mask>
    <mask id="mask-3" x="52.5" y="58.1" width="126.6" height="76.5" maskUnits="userSpaceOnUse">
      <g id="mask-8">
        <polygon id="path-7" class="cls-4" points="52.5 58.1 179 58.1 179 134.6 52.5 134.6 52.5 58.1"/>
      </g>
    </mask>
  </defs>
  <g id="Artboard-Copy-15">
    <g id="Group-17">
      <g id="Group-3">
        <g class="cls-1">
          <path id="Fill-1" class="cls-3" d="M55.3,140.9h-.4v19.3h13.6v-21.6c-4.4.9-8.8,1.7-13.3,2.3"/>
        </g>
      </g>
      <path id="Fill-4" class="cls-3" d="M80.1,129.3h0c0,0,.2,0,.2,0h-.2Z"/>
      <path id="Fill-6" class="cls-3" d="M130.5,115.9v44.3h13.7v-52.5c-4.5,2.9-9,5.7-13.7,8.2"/>
      <g id="Group-10">
        <g class="cls-7">
          <path id="Fill-8" class="cls-3" d="M116.8,122.8c-3.8,1.8-7.7,3.4-11.6,4.9v32.4h13.6v-38.3c-.7.3-1.4.7-2.1,1"/>
        </g>
      </g>
      <g id="Group-13">
        <g class="cls-2">
          <path id="Fill-11" class="cls-3" d="M80.1,135.9v24.2h13.7v-28.2c-4.5,1.5-9,2.8-13.7,4"/>
        </g>
      </g>
      <g id="Group-16">
        <g class="cls-6">
          <path id="Fill-14" class="cls-5" d="M169.2,59.6c-.1.1-.3.3-.4.4-2.5,2.5-10.2,8.9-21.7,6.9-7.4-1.3-13.4-5.5-17.1-8.8l-9,10.2c5,4.4,13.2,10.1,23.7,12,.9.2,1.9.3,2.8.4-12.1,9.5-25.2,17.5-39.1,24-17.6,8.1-36.4,13.7-56,16.4l1.9,13.5c20.9-3,41-8.9,59.8-17.6,3-1.4,5.9-2.8,8.8-4.3,10.8-5.6,21.1-12.2,30.8-19.7-.1,1.3-.3,2.7-.3,4.2-.3,7.5.7,15.3,3,23.1l13.1-3.8c-1.9-6.4-2.7-12.7-2.5-18.7.6-14.6,7.3-23.9,11.5-28.2.1-.1.3-.3.4-.4l-9.8-9.5Z"/>
        </g>
      </g>
    </g>
  </g>
</svg>