<?xml version="1.0" encoding="UTF-8"?>
<svg id="Layer_1" data-name="Layer 1" xmlns="http://www.w3.org/2000/svg" version="1.1" viewBox="0 0 220 220">
  <defs>
    <style>
      .cls-1 {
        fill: #230113;
      }

      .cls-1, .cls-2 {
        fill-rule: evenodd;
        stroke-width: 0px;
      }

      .cls-2 {
        fill: #6644f8;
      }
    </style>
  </defs>
  <g id="Artboard-Copy-15">
    <path id="Fill-48" class="cls-2" d="M65.4,113.4c0-1.9,0-3.8,0-5.7-14.8-2.3-29.4-6.3-43.5-12l-4.8,12.1c15.7,6.2,31.9,10.6,48.4,13,0-2.5,0-5,0-7.5"/>
    <path id="Fill-50" class="cls-2" d="M181.4,93.1c-7.9,2.2-16.1,1.2-23.2-2.8-7.1-4-12.2-10.5-14.4-18.4l-12.5,3.5c3.1,11.2,10.4,20.5,20.6,26.2.2,0,.3.2.5.3-12.3,3.7-24.8,6.2-37.5,7.4-12.7,1.2-25.5,1.2-38.3-.2,0,.2,0,.4,0,.6,0,4.5.2,8.6.6,12.5,6.4.6,12.9.9,19.3.9s13.1-.3,19.6-.9c13-1.3,25.9-3.8,38.5-7.5-5.2,9.9-6.4,21.2-3.4,32l12.5-3.5c-2.2-7.9-1.2-16.1,2.8-23.2,4-7.1,10.5-12.2,18.4-14.4l-3.5-12.5Z"/>
    <path id="Fill-52" class="cls-1" d="M108,128.9c-3.3,21.2-11.8,33.9-18.1,33.9s-8.8-5.2-12.4-13.5c-4.6-10.4-7.1-24.5-7.1-39.5,0-32.4,11.5-53,19.5-53s8.8,5.2,12.4,13.5c4.6,10.4,7.1,24.4,7.1,39.4,1.8-.1,3.5-.3,5.3-.4,2.6-.2,5.1-.6,7.7-.9-.3-31.6-11.7-64.6-32.5-64.6s-32.5,34-32.5,66,11.4,66,32.5,66,27.9-22.5,31.3-48.1c-1.6.2-3.1.4-4.7.5-2.9.3-5.7.5-8.6.6"/>
  </g>
</svg>