<?xml version="1.0" encoding="utf-8"?>
<svg xmlns="http://www.w3.org/2000/svg" xmlns:xlink="http://www.w3.org/1999/xlink" width="220px" height="220px" viewBox="0 0 220 220" version="1.1">
    <title>Artboard Copy 12</title>
    <defs>
        <polygon id="path-1" points="0 0.322 173.3829 0.322 173.3829 110 0 110"/>
        <polygon id="path-3" points="0 110.678 173.383 110.678 173.383 1 0 1"/>
    </defs>
    <g id="Artboard-Copy-12" stroke="none" stroke-width="1" fill="none" fill-rule="evenodd">
        <g id="Group-12" transform="translate(23.000000, 55.000000)">
            <g id="Group-3" transform="translate(0.000000, 0.678000)">
                <mask id="mask-2" fill="white">
                    <use xlink:href="#path-1"/>
                </mask>
                <g id="Clip-2"/>
                <path d="M14.8179,13.322 C13.8159,13.322 12.9999,14.137 12.9999,15.14 L12.9999,95.182 C12.9999,96.185 13.8159,97 14.8179,97 L158.5649,97 C159.5679,97 160.3829,96.185 160.3829,95.182 L160.3829,15.14 C160.3829,14.137 159.5679,13.322 158.5649,13.322 L14.8179,13.322 Z M158.5649,110 L14.8179,110 C6.6479,110 -0.0001,103.353 -0.0001,95.182 L-0.0001,15.14 C-0.0001,6.969 6.6479,0.322 14.8179,0.322 L158.5649,0.322 C166.7349,0.322 173.3829,6.969 173.3829,15.14 L173.3829,95.182 C173.3829,103.353 166.7349,110 158.5649,110 L158.5649,110 Z" id="Fill-1" fill="#230113" mask="url(#mask-2)"/>
            </g>
            <path d="M51.9414,85.6184 C37.3294,85.6184 25.4414,73.7304 25.4414,59.1184 C25.4414,44.5064 37.3294,32.6184 51.9414,32.6184 L51.9414,45.6184 C44.4974,45.6184 38.4414,51.6744 38.4414,59.1184 C38.4414,66.5624 44.4974,72.6184 51.9414,72.6184 C59.3854,72.6184 65.4414,66.5624 65.4414,59.1184 L78.4414,59.1184 C78.4414,73.7304 66.5534,85.6184 51.9414,85.6184" id="Fill-4" fill="#33CC6B"/>
            <path d="M83.4414,54.1184 L70.4414,54.1184 C70.4414,46.6744 64.3854,40.6184 56.9414,40.6184 L56.9414,27.6184 C71.5534,27.6184 83.4414,39.5064 83.4414,54.1184" id="Fill-6" fill="#230113"/>
            <mask id="mask-4" fill="white">
                <use xlink:href="#path-3"/>
            </mask>
            <g id="Clip-9"/>
            <polygon id="Fill-8" fill="#33CC6B" mask="url(#mask-4)" points="98.991 84.398 111.991 84.398 111.991 30.619 98.991 30.619"/>
            <polygon id="Fill-10" fill="#33CC6B" mask="url(#mask-4)" points="116.991 84.398 129.991 84.398 129.991 43.029 116.991 43.029"/>
            <polygon id="Fill-11" fill="#33CC6B" mask="url(#mask-4)" points="134.991 84.398 147.991 84.398 147.991 55.44 134.991 55.44"/>
        </g>
    </g>
</svg>